<?xml version="1.0" encoding="utf-8"?>
<!-- Generator: Adobe Illustrator 19.2.1, SVG Export Plug-In . SVG Version: 6.00 Build 0)  -->
<svg version="1.1" id="Layer_1" xmlns="http://www.w3.org/2000/svg" xmlns:xlink="http://www.w3.org/1999/xlink" x="0px" y="0px"
	 viewBox="0 0 421.1 170" style="enable-background:new 0 0 421.1 170;" xml:space="preserve">
<style type="text/css">
	.st0{fill:#00B4B4;}
</style>
<title>kosher_logo</title>
<path class="st0" d="M85,0C38.1,0,0,38.1,0,85s38.1,85,85,85s85-38.1,85-85l0,0C170,38.1,131.9,0,85,0z M57.1,21.4
	c8.8-3.9,18.3-5.9,27.9-5.8c3.8,0,7.7,0.3,11.5,1L57.1,55.8l0,0L57.1,21.4L57.1,21.4z M32.4,130.4c-22.5-26.1-22.5-64.7,0-90.7
	V130.4z M85,154.5c-9.6,0-19.1-2-27.9-5.8V82.5l0,0L79,104.4V145h22.9v-17.7l17.9,17.9C109.2,151.2,97.2,154.5,85,154.5L85,154.5z
	 M101.9,96.1V75.3h9.1c5.7,0,10.4,4.6,10.4,10.4s-4.6,10.4-10.4,10.4l0,0L101.9,96.1L101.9,96.1z M134.7,133.5l-18.5-18.6
	c13.4-0.5,24.1-13.2,24.1-28.8c0-15.9-11.1-28.7-24.9-28.7H84.1l-5,5v15.4l-8.6-8.6l46-46c34.2,17.4,47.8,59.2,30.4,93.4
	C143.7,122.7,139.6,128.4,134.7,133.5L134.7,133.5z"/>
<g>
	<path class="st0" d="M249.1,50.8l8.8-14.4c0.1-0.2,0.2-0.4,0.2-0.6c0-0.3-0.1-0.5-0.3-0.7c-0.2-0.2-0.5-0.3-0.7-0.3h-4.8
		c-0.7-0.1-1.3,0.3-1.7,0.8l-7.6,12.5h-4V36.1c0-0.6-0.5-1.2-1.1-1.2c0,0-0.1,0-0.1,0h-4.3c-0.3,0-0.6,0.1-0.8,0.3
		c-0.2,0.2-0.3,0.5-0.3,0.8v30.6c0,0.6,0.5,1.1,1.1,1.1c0,0,0,0,0,0h4.3c0.3,0,0.6-0.1,0.9-0.3c0.2-0.2,0.3-0.5,0.3-0.8V54.1h4.4
		l8,12.9c0.3,0.5,0.8,0.8,1.4,0.8h4.9c0.3,0,0.6-0.1,0.8-0.3c0.2-0.2,0.3-0.5,0.3-0.8c0-0.2,0-0.4-0.1-0.5L249.1,50.8z"/>
	<path class="st0" d="M275,68.3c4.3,0,7.6-1.1,10-3.2c2.4-2.2,3.7-5.4,3.8-9.6c0.1-1.8,0.1-3.2,0.1-4s0-2.2-0.1-4
		c-0.1-4.2-1.4-7.4-3.9-9.6s-5.8-3.3-9.9-3.3c-4.2,0-7.5,1.1-9.9,3.3s-3.7,5.4-3.9,9.6c0,0.9,0,2.2,0,4s0,3.1,0,4
		c0.1,4.3,1.4,7.5,3.8,9.6C267.4,67.2,270.7,68.3,275,68.3z M268,47.6c0.1-2.6,0.7-4.5,2-5.8c2.8-2.5,7.1-2.5,9.9,0
		c1.3,1.3,1.9,3.2,2,5.8c0.1,1.8,0.1,3.1,0.1,3.8c0,0.7,0,2-0.1,3.8c-0.1,2.6-0.8,4.5-2,5.8c-2.9,2.5-7.1,2.5-10,0
		c-1.2-1.3-1.9-3.2-2-5.8c0-0.9,0-2.2,0-3.8C268,49.8,268,48.5,268,47.6L268,47.6z"/>
	<path class="st0" d="M296.1,67.8h36.2c0.3,0,0.6-0.1,0.9-0.3c0.2-0.2,0.3-0.5,0.3-0.8V36c0-0.3-0.1-0.6-0.3-0.8
		c-0.2-0.2-0.5-0.3-0.9-0.3H328c-0.3,0-0.6,0.1-0.8,0.3c-0.2,0.2-0.3,0.5-0.3,0.8v25.8h-9.3V36c0-0.6-0.4-1.1-1-1.1
		c-0.1,0-0.1,0-0.2,0h-4.3c-0.3,0-0.6,0.1-0.9,0.3c-0.2,0.2-0.3,0.5-0.3,0.8v25.8h-9.3V36c0-0.3-0.1-0.6-0.3-0.8
		c-0.2-0.2-0.5-0.3-0.9-0.3h-4.3c-0.3,0-0.6,0.1-0.8,0.3c-0.2,0.2-0.3,0.5-0.3,0.8v30.7C295,67.3,295.5,67.8,296.1,67.8
		C296.1,67.8,296.1,67.8,296.1,67.8z"/>
	<path class="st0" d="M341.9,67.8H363c0.3,0,0.6-0.1,0.9-0.3c0.2-0.2,0.3-0.5,0.3-0.8v-3.2c0-0.3-0.1-0.6-0.3-0.8
		c-0.2-0.2-0.5-0.3-0.9-0.3h-15.8v-8.5h14.4c0.3,0,0.6-0.1,0.9-0.3c0.2-0.2,0.3-0.5,0.3-0.8v-3c0-0.6-0.5-1.2-1.1-1.2
		c0,0-0.1,0-0.1,0h-14.4v-8.2h15.4c0.3,0,0.6-0.1,0.9-0.3c0.2-0.2,0.3-0.5,0.3-0.8V36c0-0.6-0.5-1.2-1.1-1.2c0,0-0.1,0-0.1,0h-20.7
		c-0.3,0-0.6,0.1-0.8,0.3c-0.2,0.2-0.3,0.5-0.3,0.8v30.6C340.7,67.3,341.2,67.8,341.9,67.8C341.8,67.8,341.9,67.8,341.9,67.8z"/>
	<path class="st0" d="M392.7,37.6c-2.2-1.8-5.1-2.7-8.9-2.7h-12.6c-0.3,0-0.6,0.1-0.8,0.3c-0.2,0.2-0.3,0.5-0.3,0.8v30.6
		c0,0.6,0.5,1.1,1.1,1.1c0,0,0,0,0,0h4.5c0.3,0,0.6-0.1,0.9-0.3c0.2-0.2,0.3-0.5,0.3-0.8v-11h6.9c3.8,0,6.8-0.9,8.9-2.6
		c2.2-1.7,3.2-4.3,3.2-7.7C396,42,394.9,39.4,392.7,37.6z M387.7,49.1c-1.2,0.9-2.7,1.4-4.2,1.3h-6.8V40.2h6.8
		c1.5-0.1,3,0.4,4.2,1.4c1,1,1.5,2.4,1.4,3.8C389.2,46.8,388.7,48.1,387.7,49.1L387.7,49.1z"/>
	<path class="st0" d="M255.1,104.8c-2.2-1.8-5.1-2.7-8.9-2.7h-12.6c-0.3,0-0.6,0.1-0.8,0.3c-0.2,0.2-0.3,0.5-0.3,0.8v30.6
		c0,0.6,0.5,1.1,1.1,1.1c0,0,0,0,0,0h4.5c0.3,0,0.6-0.1,0.9-0.3c0.2-0.2,0.3-0.5,0.3-0.8v-11h6.9c3.8,0,6.8-0.9,8.9-2.6
		s3.2-4.3,3.2-7.7C258.3,109.2,257.3,106.5,255.1,104.8z M250.1,116.3c-1.2,0.9-2.7,1.4-4.2,1.3h-6.8v-10.2h6.8
		c1.5-0.1,3,0.4,4.2,1.4c1,1,1.5,2.4,1.4,3.8C251.6,113.9,251.1,115.3,250.1,116.3L250.1,116.3z"/>
	<path class="st0" d="M286,105c-2.5-2.2-5.8-3.3-9.9-3.3s-7.4,1.1-9.9,3.3c-2.4,2.2-3.7,5.4-3.9,9.6c0,0.9,0,2.2,0,4s0,3.1,0,4
		c0.1,4.3,1.4,7.5,3.8,9.6c2.4,2.2,5.7,3.2,10,3.2c4.3,0,7.6-1.1,10-3.2c2.4-2.2,3.7-5.4,3.8-9.6c0.1-1.8,0.1-3.2,0.1-4s0-2.2-0.1-4
		C289.8,110.4,288.5,107.2,286,105z M283.1,122.4c-0.1,2.6-0.8,4.5-2,5.8c-2.9,2.5-7.1,2.5-10,0c-1.2-1.3-1.9-3.2-2-5.8
		c0-0.9,0-2.2,0-3.8c0-1.6,0-2.9,0-3.8c0.1-2.6,0.7-4.5,2-5.8c2.8-2.5,7.1-2.5,9.9,0c1.3,1.3,1.9,3.2,2,5.8c0.1,1.8,0.1,3.1,0.1,3.8
		C283.1,119.3,283.1,120.6,283.1,122.4L283.1,122.4z"/>
	<path class="st0" d="M316.1,103.1c-2.3-1-4.8-1.5-7.3-1.4c-4.3,0-7.6,1.1-10,3.4c-2.4,2.2-3.6,5.4-3.8,9.4c0,0.9,0,2.3,0,4.2
		c0,1.9,0,3.3,0,4.1c0.2,4.1,1.4,7.2,3.8,9.4c2.4,2.2,5.7,3.3,10,3.3c2.5,0.1,5-0.4,7.3-1.4c1.9-0.8,3.6-2.2,4.8-3.9
		c1.1-1.6,1.8-3.6,1.8-5.6c0-0.3-0.1-0.5-0.3-0.7c-0.2-0.2-0.5-0.3-0.7-0.3h-4.6c-0.3,0-0.6,0.1-0.9,0.3c-0.2,0.3-0.4,0.6-0.5,0.9
		c-0.3,1.6-1.2,3.1-2.5,4.1c-1.4,0.9-3,1.3-4.6,1.2c-4.5,0-6.8-2.5-7-7.5c0-0.9,0-2.2,0-4c0-1.8,0-3.1,0-3.9c0.2-5,2.5-7.5,7-7.5
		c1.6-0.1,3.2,0.3,4.6,1.2c1.3,1,2.2,2.5,2.4,4.1c0.1,0.3,0.2,0.7,0.5,0.9c0.2,0.2,0.5,0.3,0.9,0.3h4.6c0.3,0,0.5-0.1,0.7-0.3
		c0.2-0.2,0.3-0.4,0.3-0.6v-0.1c0-2-0.7-4-1.8-5.6C319.7,105.3,318.1,103.9,316.1,103.1z"/>
	<path class="st0" d="M348.3,103.1c-2.3-1-4.8-1.5-7.3-1.4c-4.3,0-7.6,1.1-10,3.4c-2.4,2.2-3.6,5.4-3.8,9.4c0,0.9,0,2.3,0,4.2
		c0,1.9,0,3.3,0,4.1c0.2,4.1,1.4,7.2,3.8,9.4s5.7,3.3,10,3.3c2.5,0.1,5-0.4,7.3-1.4c1.9-0.8,3.6-2.2,4.8-3.9
		c1.1-1.6,1.8-3.6,1.8-5.6c0-0.3-0.1-0.5-0.3-0.7c-0.2-0.2-0.5-0.3-0.7-0.3h-4.6c-0.3,0-0.6,0.1-0.9,0.3c-0.2,0.3-0.4,0.6-0.5,0.9
		c-0.3,1.6-1.2,3.1-2.5,4.1c-1.4,0.9-3,1.3-4.6,1.2c-4.5,0-6.8-2.5-7-7.5c0-0.9,0-2.2,0-4c0-1.8,0-3.1,0-3.9c0.2-5,2.5-7.5,7-7.5
		c1.6-0.1,3.2,0.3,4.6,1.2c1.3,1,2.2,2.5,2.4,4.1c0.1,0.3,0.2,0.7,0.5,0.9c0.2,0.2,0.5,0.3,0.9,0.3h4.6c0.3,0,0.5-0.1,0.7-0.3
		c0.2-0.2,0.3-0.4,0.3-0.6v-0.1c0-2-0.7-4-1.8-5.6C351.9,105.3,350.3,103.9,348.3,103.1z"/>
	<path class="st0" d="M387.9,102.1h-4c-0.6,0-1.1,0.3-1.4,0.8l-15.4,21.9v-21.5c0-0.3-0.1-0.6-0.3-0.8c-0.2-0.2-0.5-0.3-0.8-0.3
		h-4.4c-0.3,0-0.6,0.1-0.8,0.3c-0.2,0.2-0.3,0.5-0.3,0.8v30.6c0,0.3,0.1,0.6,0.3,0.8c0.2,0.2,0.5,0.3,0.8,0.3h4
		c0.6,0,1.1-0.3,1.4-0.8l15.3-21.3v21c0,0.3,0.1,0.6,0.3,0.8c0.2,0.2,0.5,0.3,0.9,0.3h4.3c0.3,0,0.6-0.1,0.8-0.3
		c0.2-0.2,0.3-0.5,0.3-0.8v-30.6c0-0.3-0.1-0.6-0.3-0.8C388.5,102.2,388.2,102.1,387.9,102.1z"/>
	<path class="st0" d="M420.8,102.4c-0.2-0.2-0.5-0.3-0.8-0.3h-11.7c-2.2-0.1-4.4,0.4-6.4,1.4c-1.7,0.9-3.1,2.2-4,3.8
		c-0.9,1.6-1.4,3.5-1.3,5.4c-0.1,2.1,0.5,4.2,1.6,6c1.1,1.7,2.7,2.9,4.6,3.6l-6.8,11.1c-0.1,0.2-0.1,0.3-0.1,0.5
		c0,0.3,0.1,0.5,0.3,0.7c0.2,0.2,0.4,0.3,0.7,0.3h4.3c0.4,0,0.8-0.1,1.2-0.3c0.3-0.3,0.6-0.6,0.7-0.9l6.3-10.6h5.2v10.7
		c0,0.3,0.1,0.6,0.3,0.8c0.2,0.2,0.5,0.3,0.9,0.3h4.3c0.3,0,0.6-0.1,0.8-0.3c0.2-0.2,0.3-0.5,0.3-0.8v-30.6
		C421.1,102.9,421,102.6,420.8,102.4z M414.5,117.8h-5.9c-3.4,0-5.2-1.7-5.2-5c-0.1-1.4,0.4-2.8,1.4-3.9c1-1,2.4-1.6,3.8-1.5h5.9
		L414.5,117.8L414.5,117.8z"/>
</g>
</svg>
