<svg id="Layer_1" data-name="Layer 1" xmlns="http://www.w3.org/2000/svg" viewBox="0 0 170 170"><defs><style>.cls-1{fill:#00b4b4;}</style></defs><title>kosher_logo2</title><path class="cls-1" d="M85,0a85,85,0,1,0,85,85h0A85.06,85.06,0,0,0,85,0ZM57.1,21.4A67.12,67.12,0,0,1,85,15.6a63.82,63.82,0,0,1,11.5,1L57.1,55.8h0V21.4h0Zm-24.7,109a69.37,69.37,0,0,1,0-90.7v90.7ZM85,154.5a70.43,70.43,0,0,1-27.9-5.8V82.5h0L79,104.4V145h22.9V127.3l17.9,17.9A70.82,70.82,0,0,1,85,154.5h0Zm16.9-58.4V75.3H111a10.4,10.4,0,0,1,0,20.8h-9.1Zm32.8,37.4-18.5-18.6c13.4-.5,24.1-13.2,24.1-28.8,0-15.9-11.1-28.7-24.9-28.7H84.1l-5,5V77.8l-8.6-8.6,46-46a69.44,69.44,0,0,1,30.4,93.4,74.11,74.11,0,0,1-12.2,16.9h0Z"/></svg>