<svg xmlns="http://www.w3.org/2000/svg" width="79" height="49" viewBox="0 0 79 49">
  <defs>
    <style>
      .cls-1 {
        fill: #ededed;
      }

      .cls-2 {
        fill: #d4d4d4;
      }

      .cls-2, .cls-3, .cls-4 {
        fill-rule: evenodd;
      }

      .cls-3 {
        fill: #009b9b;
      }

      .cls-4 {
        fill: #00b4b4;
      }
    </style>
  </defs>
  <rect class="cls-1" width="68" height="49"/>
  <path class="cls-2" d="M9,11H35v2H9V11Zm0,7H35v2H9V18Zm0,7H35v2H9V25Z"/>
  <path class="cls-3" d="M64.064,31.931L58.979,44.9l-3.342-3.129-4.365.936,5.275-13.728"/>
  <path class="cls-3" d="M69.457,28.984l5.275,13.728-4.365-.936-3.342,3.129L61.94,31.932"/>
  <path class="cls-4" d="M62.98,39a4.631,4.631,0,0,1-3.3-1.374l-1.334-1.336a1.953,1.953,0,0,0-1.5-.631H54.977a4.676,4.676,0,0,1-4.668-4.675V29.11a2.129,2.129,0,0,0-.631-1.51l-1.333-1.336a4.676,4.676,0,0,1,0-6.6l1.334-1.336a1.961,1.961,0,0,0,.63-1.509V14.946a4.676,4.676,0,0,1,4.668-4.675h1.867a2.115,2.115,0,0,0,1.5-.63L59.683,8.3a4.753,4.753,0,0,1,6.594,0L67.61,9.64a1.954,1.954,0,0,0,1.506.631h1.867a4.677,4.677,0,0,1,4.669,4.675v1.871a2.13,2.13,0,0,0,.631,1.511l1.333,1.335a4.676,4.676,0,0,1,0,6.6L76.281,27.6a1.961,1.961,0,0,0-.629,1.509v1.872a4.676,4.676,0,0,1-4.669,4.675H69.117a2.121,2.121,0,0,0-1.506.631l-1.333,1.336A4.631,4.631,0,0,1,62.98,39Z"/>
</svg>
