<svg xmlns="http://www.w3.org/2000/svg" width="200" height="193" viewBox="0 0 200 193">
  <defs>
    <style>
      .cls-1 {
        fill: #f7f7f7;
      }

      .cls-2 {
        fill: #d2d2d2;
      }

      .cls-10, .cls-11, .cls-12, .cls-13, .cls-2, .cls-3, .cls-4, .cls-5, .cls-6, .cls-8, .cls-9 {
        fill-rule: evenodd;
      }

      .cls-3 {
        fill: #fff;
      }

      .cls-4 {
        fill: #e5e5e5;
      }

      .cls-5 {
        fill: #bdbdbd;
      }

      .cls-6 {
        fill: #d4d4d4;
      }

      .cls-7 {
        fill: #eeca3c;
      }

      .cls-8 {
        opacity: 0.1;
      }

      .cls-9 {
        fill: #d6b536;
      }

      .cls-10 {
        fill: #dec45e;
      }

      .cls-11 {
        fill: #f1d563;
      }

      .cls-12 {
        fill: #00b2b2;
      }

      .cls-13 {
        fill: #33c1c1;
      }
    </style>
  </defs>
  <rect class="cls-1" y="175" width="200" height="18" rx="9" ry="9"/>
  <path class="cls-2" d="M182,184H19v-4h0V93a4,4,0,0,1,4-4H123a4,4,0,0,1,4,4v14a4,4,0,0,0,4,4h47a4,4,0,0,1,4,4v33h0v36Z"/>
  <path class="cls-3" d="M172,184H62V123H168a4,4,0,0,1,4,4v38h0v19Z"/>
  <path class="cls-4" d="M56,189.75L59.7,8.423A2.453,2.453,0,0,1,62.133,6H84.789A2.476,2.476,0,0,1,87.3,8.421C87.742,30.082,91,189.75,91,189.75H56ZM46,123h92a1,1,0,0,1,1,1v59a1,1,0,0,1-1,1H46a1,1,0,0,1-1-1V124A1,1,0,0,1,46,123Z"/>
  <path class="cls-5" d="M88.944,89l0.694,34H57.362l0.694-34H88.944Z"/>
  <path id="Rounded_Rectangle_1" data-name="Rounded Rectangle 1" class="cls-6" d="M104,134h8a2,2,0,0,1,2,2v8a2,2,0,0,1-2,2h-8a2,2,0,0,1-2-2v-8A2,2,0,0,1,104,134Zm23,0h8a2,2,0,0,1,2,2v8a2,2,0,0,1-2,2h-8a2,2,0,0,1-2-2v-8A2,2,0,0,1,127,134Zm23,0h8a2,2,0,0,1,2,2v8a2,2,0,0,1-2,2h-8a2,2,0,0,1-2-2v-8A2,2,0,0,1,150,134Zm-46,20h8a2,2,0,0,1,2,2v8a2,2,0,0,1-2,2h-8a2,2,0,0,1-2-2v-8A2,2,0,0,1,104,154Zm23,0h8a2,2,0,0,1,2,2v8a2,2,0,0,1-2,2h-8a2,2,0,0,1-2-2v-8A2,2,0,0,1,127,154Zm23,0h8a2,2,0,0,1,2,2v8a2,2,0,0,1-2,2h-8a2,2,0,0,1-2-2v-8A2,2,0,0,1,150,154Z"/>
  <path id="Rounded_Rectangle_2" data-name="Rounded Rectangle 2" class="cls-7" d="M34,135H60a6,6,0,0,1,6,6v41a2,2,0,0,1-2,2H30a2,2,0,0,1-2-2V141A6,6,0,0,1,34,135Z"/>
  <path id="Rounded_Rectangle_2-2" data-name="Rounded Rectangle 2" class="cls-8" d="M64,184H54l1-49h9a2,2,0,0,1,2,2v45A2,2,0,0,1,64,184Z"/>
  <path id="Rounded_Rectangle_2-3" data-name="Rounded Rectangle 2" class="cls-9" d="M28,144v-3a6,6,0,0,1,6-6H60a6,6,0,0,1,6,6v3H28Z"/>
  <path id="Rounded_Rectangle_2-4" data-name="Rounded Rectangle 2" class="cls-10" d="M28,144v-3a6,6,0,0,1,6-6h4v9H28Z"/>
  <path id="Rounded_Rectangle_2-5" data-name="Rounded Rectangle 2" class="cls-11" d="M38,144v40H28V144H38Z"/>
  <path class="cls-12" d="M51,184L54.7,2.673A2.453,2.453,0,0,1,57.133.25H79.789A2.476,2.476,0,0,1,82.3,2.671C82.741,24.333,86,184,86,184H51Z"/>
  <path class="cls-13" d="M51.718,148.837l33.39-8.551c0.172,8.431.329,16.1,0.461,22.584l-34.317,8.788C51.374,165.7,51.533,157.867,51.718,148.837Zm0.769-37.7,31.86-8.159c0.157,7.706.312,15.306,0.461,22.584l-32.786,8.4C52.169,126.712,52.326,119.026,52.487,111.14Zm0.769-37.7,30.329-7.767c0.15,7.351.305,14.95,0.461,22.584l-31.256,8C52.946,88.624,53.1,80.947,53.256,73.443Zm0.769-37.7,28.8-7.375c0.138,6.744.294,14.383,0.461,22.584L53.56,58.567C53.726,50.45,53.883,42.746,54.026,35.746Zm0.3-14.876c0.174-8.516.3-14.931,0.371-18.2A2.453,2.453,0,0,1,57.133.25H79.789A2.476,2.476,0,0,1,82.3,2.671c0.046,2.262.123,6.046,0.224,10.978Zm31.54,156.721C85.953,181.679,86,184,86,184H60.844Z"/>
</svg>
