<?xml version="1.0" encoding="utf-8"?>
<!-- Generator: Adobe Illustrator 19.2.1, SVG Export Plug-In . SVG Version: 6.00 Build 0)  -->
<svg version="1.1" id="Layer_1" xmlns="http://www.w3.org/2000/svg" xmlns:xlink="http://www.w3.org/1999/xlink" x="0px" y="0px"
	 viewBox="0 0 213 326.6" style="enable-background:new 0 0 213 326.6;" xml:space="preserve">
<style type="text/css">
	.st0{fill:#00B2B2;}
	.st1{fill:#EECB3C;}
	.st2{fill:#ECECEC;}
	.st3{fill:#FF8C3C;}
</style>
<path class="st0" d="M197.4,255.8H15.5c-12.2,0-19.5-14.1-12.4-23.9c6.8-9.4,10.5-20.8,10.4-32.5V97.8c0,0,0,0,0,0V93
	c0-51.3,41.6-93,92.9-93c0,0,0,0,0,0l0,0c51.3,0,92.9,41.7,92.9,93c0,0,0,0,0,0v4.7h0.1v101.8c-0.1,11.6,3.5,23,10.3,32.5
	C217,241.8,209.5,255.8,197.4,255.8z"/>
<path class="st1" d="M105.8,326.6c32.7,0,63.3-9.3,89.1-25.4c3.9-2.4,5.4-7.4,3.4-11.6c-25-51.7-72.9-64.9-72.9-64.9l-18.2,0.1
	l-18.1-0.1c0,0-48.9,13.5-73.6,66.5c-2,4.2-0.4,9.1,3.6,11.5c6.9,4.1,14,7.7,21.5,10.9l0.2-0.2c0,0,0,0.1,0,0.3
	C60.8,322,82.8,326.6,105.8,326.6z"/>
<path class="st2" d="M143.2,207.8c-7.8,2.8-15.8,4.6-24,5.4v23.3h-9.6c1.5,3,2.4,7.9,2.4,12.8c0,7.9-3.9,14.3-5.5,14.3
	s-5.5-6.4-5.5-14.3c0-4.9,1-9.9,2.4-12.8h-9.6v-23.3c-8-0.8-15.9-2.5-23.5-5.2c-20.4-7.4-34-26.9-34-48.6v-27c0.5,0,1,0,1.5,0
	c32.4,0,82.2-21.7,101.8-36.3c9.3,9.1,21.5,22.6,34.8,22.2c0.6,0,1.2,0,1.8-0.1v41.3C176.3,181,163.3,200.5,143.2,207.8z"/>
<path class="st3" d="M93.8,213.4c0,0,1.8,19.7,12.6,22.7l-10.2,11.1C96.3,247.2,81.5,229.4,93.8,213.4z M119.1,213.4
	c0,0-1.8,19.7-12.6,22.7l10.2,11.1C116.6,247.2,131.5,229.4,119.1,213.4z"/>
</svg>
