<svg xmlns="http://www.w3.org/2000/svg" width="59" height="94" viewBox="0 0 59 94">
  <defs>
    <style>
      .cls-1 {
        fill: #f0f0f0;
      }

      .cls-1, .cls-2, .cls-5 {
        fill-rule: evenodd;
      }

      .cls-2 {
        fill: #ededed;
      }

      .cls-3 {
        fill: #07b6b6;
      }

      .cls-4 {
        fill: #069292;
      }

      .cls-5 {
        fill: #d4d4d4;
      }
    </style>
  </defs>
  <path class="cls-1" d="M28.488,33.694l5.8,1.553-1.553,5.8-5.8-1.553Z"/>
  <path class="cls-1" d="M35.581,3.628L43.309,5.7l-2.294,7.83-7.727-2.07Z"/>
  <path class="cls-2" d="M53,81h4a2,2,0,0,1,0,4v6a3,3,0,0,1-6,0,4,4,0,0,0-4-4H13a4,4,0,0,0-4,4,3,3,0,0,1-6,0V85H2a2,2,0,0,1,0-4H14.813l4.911-18.328,6.761,1.812-1.16,4.329a18.98,18.98,0,0,0,12.637-34.7l-0.781,2.915L25.591,33.918,32.355,7.94l11.591,3.106-3.038,12.07a30,30,0,0,1,.445,53.453L48,81h5Z"/>
  <circle class="cls-3" cx="41" cy="23" r="7"/>
  <circle class="cls-4" cx="41" cy="23" r="3"/>
  <path class="cls-5" d="M31.046,0.5L48.432,5.163,47.4,9.027,30.01,4.368Z"/>
  <path class="cls-5" d="M15.046,58.5l17.387,4.659L31.4,67.027,14.01,62.368Z"/>
</svg>
