<svg xmlns="http://www.w3.org/2000/svg" width="62" height="65" viewBox="0 0 62 65">
  <defs>
    <style>
      .cls-1 {
        fill: #00b4b4;
      }

      .cls-2 {
        fill: #009e9e;
      }

      .cls-2, .cls-3, .cls-4, .cls-5, .cls-6 {
        fill-rule: evenodd;
      }

      .cls-3 {
        fill: #fff;
      }

      .cls-4 {
        fill: #00a7a7;
      }

      .cls-5 {
        fill: #009090;
      }

      .cls-6 {
        fill: #ccc;
      }
    </style>
  </defs>
  <rect class="cls-1" width="62" height="62" rx="8" ry="8"/>
  <path class="cls-2" d="M31,21A12,12,0,1,1,19,33,12,12,0,0,1,31,21Zm0,4a8,8,0,1,1-8,8A8,8,0,0,1,31,25Zm8.941,9H33.816a2.813,2.813,0,0,0,0-2h6.125A8.549,8.549,0,0,1,39.941,34Zm-7.655-3.7,4.328-4.328a9.054,9.054,0,0,1,1.414,1.414L33.7,31.714A3,3,0,0,0,32.286,30.3ZM31,30a2.974,2.974,0,0,0-1,.184V24.058a8.561,8.561,0,0,1,2,0v6.125A2.974,2.974,0,0,0,31,30Zm-2.7,1.718L23.969,27.39c0.162-.2.333-0.4,0.511-0.583l0.327-.327c0.185-.176.376-0.346,0.575-0.505L29.71,30.3A3,3,0,0,0,28.3,31.718ZM28,33a2.971,2.971,0,0,0,.184,1H22.059a8.563,8.563,0,0,1,0-2h6.125A2.971,2.971,0,0,0,28,33Zm1.706,2.7-4.327,4.327c-0.138-.111-0.269-0.229-0.4-0.347l-0.654-.654c-0.123-.136-0.244-0.272-0.358-0.415L28.3,34.278A3,3,0,0,0,29.706,35.7ZM31,36a2.971,2.971,0,0,0,1-.184v6.125a8.546,8.546,0,0,1-2,0V35.816A2.971,2.971,0,0,0,31,36Zm2.708-1.728,4.33,4.329a9.047,9.047,0,0,1-1.411,1.417L32.3,35.692A3,3,0,0,0,33.708,34.272ZM31,30a3,3,0,1,1-3,3A3,3,0,0,1,31,30Z"/>
  <path class="cls-3" d="M31,19A12,12,0,1,1,19,31,12,12,0,0,1,31,19Zm0,4a8,8,0,1,1-8,8A8,8,0,0,1,31,23Zm8.941,9H33.816a2.812,2.812,0,0,0,0-2h6.125A8.546,8.546,0,0,1,39.941,32Zm-7.655-3.7,4.328-4.328a9.045,9.045,0,0,1,1.414,1.414L33.7,29.714A3,3,0,0,0,32.286,28.3ZM31,28a2.971,2.971,0,0,0-1,.184V22.059a8.546,8.546,0,0,1,2,0v6.125A2.971,2.971,0,0,0,31,28Zm-2.7,1.718L23.969,25.39c0.162-.2.333-0.4,0.511-0.582l0.327-.327c0.185-.176.376-0.346,0.575-0.505L29.71,28.3A3,3,0,0,0,28.3,29.718ZM28,31a2.968,2.968,0,0,0,.184,1H22.059a8.56,8.56,0,0,1,0-2h6.125A2.969,2.969,0,0,0,28,31Zm1.706,2.7-4.327,4.327c-0.138-.111-0.269-0.229-0.4-0.347l-0.654-.655c-0.123-.136-0.244-0.272-0.358-0.415L28.3,32.277A3,3,0,0,0,29.706,33.7ZM31,34a2.971,2.971,0,0,0,1-.184v6.125a8.561,8.561,0,0,1-2,0V33.816A2.972,2.972,0,0,0,31,34Zm2.708-1.728,4.33,4.329a9.047,9.047,0,0,1-1.411,1.417L32.3,33.692A3,3,0,0,0,33.708,32.272ZM31,28a3,3,0,1,1-3,3A3,3,0,0,1,31,28Z"/>
  <path class="cls-2" d="M15.5,41A3.5,3.5,0,1,1,12,44.5,3.5,3.5,0,0,1,15.5,41Zm1.318,5.732,1.414-1.414,4.95,4.95-1.414,1.414Z"/>
  <path class="cls-3" d="M15.5,39A3.5,3.5,0,1,1,12,42.5,3.5,3.5,0,0,1,15.5,39Zm1.318,5.732,1.414-1.414,4.95,4.95-1.414,1.414Z"/>
  <path class="cls-4" d="M8,62h8l-4,3H8V62Z"/>
  <path class="cls-4" d="M54,62H46l4,3h4V62Z"/>
  <path class="cls-5" d="M48,9a5,5,0,0,1,5,5V48a5,5,0,0,1-5,5H14a5,5,0,0,1-5-5V14a5,5,0,0,1,5-5H48m0-1H14a6.007,6.007,0,0,0-6,6V48a6.007,6.007,0,0,0,6,6H48a6.007,6.007,0,0,0,6-6V14a6.007,6.007,0,0,0-6-6h0Z"/>
  <path class="cls-3" d="M52,16h3v7H52V16Zm0,23h3v7H52V39Z"/>
  <path class="cls-6" d="M52,20h3v1H52V20Zm0,23h3v1H52V43Z"/>
</svg>
