<svg xmlns="http://www.w3.org/2000/svg" width="160" height="157" viewBox="0 0 160 157">
  <defs>
    <style>
      .cls-1 {
        fill: #f7f7f7;
      }

      .cls-2 {
        fill: #00bebe;
      }

      .cls-3 {
        fill: #00abab;
      }

      .cls-3, .cls-4, .cls-6, .cls-7, .cls-8, .cls-9 {
        fill-rule: evenodd;
      }

      .cls-4 {
        fill: #166c6c;
      }

      .cls-5 {
        fill: #00a8a8;
      }

      .cls-6 {
        fill: #00c2c2;
      }

      .cls-7 {
        fill: #18d6d6;
      }

      .cls-8 {
        fill: #00b3b3;
      }

      .cls-9 {
        fill: #fff;
      }
    </style>
  </defs>
  <rect class="cls-1" y="139" width="160" height="18" rx="9" ry="9"/>
  <rect class="cls-2" x="14" y="26" width="132" height="125"/>
  <path class="cls-3" d="M122,138l-12-21.043h24Zm-8.135-18.789L122,133.476l8.135-14.265h-16.27ZM134,131.043H110L122,110Zm-20.135-2.254h16.27L122,114.524Z"/>
  <path class="cls-4" d="M41,45a6,6,0,1,1-6,6A6,6,0,0,1,41,45Zm78,0a6,6,0,1,1-6,6A6,6,0,0,1,119,45Z"/>
  <rect class="cls-5" x="20" width="120" height="26"/>
  <path class="cls-6" d="M20,0L34,12h0L20,26V0ZM140,0L126,12h0l14,14V0Z"/>
  <path class="cls-7" d="M34,26V12h0L14,26H34Zm92,0V12h0l20,14H126Z"/>
  <path class="cls-8" d="M80,116A42,42,0,0,1,38,74V51a3,3,0,1,1,6,0V74h0a36,36,0,1,0,72,0h0V51a3,3,0,0,1,6,0V74A42,42,0,0,1,80,116Z"/>
  <path class="cls-9" d="M80,106A42,42,0,0,1,38,64V51a3,3,0,1,1,6,0V64h0a36,36,0,0,0,72,0h0V51a3,3,0,0,1,6,0V64A42,42,0,0,1,80,106Z"/>
</svg>
