<svg xmlns="http://www.w3.org/2000/svg" width="83" height="55" viewBox="0 0 83 55">
  <defs>
    <style>
      .cls-1 {
        fill: #00b4b4;
      }

      .cls-1, .cls-2, .cls-3 {
        fill-rule: evenodd;
      }

      .cls-2 {
        fill: #ededed;
      }

      .cls-3 {
        fill: #d4d4d4;
      }
    </style>
  </defs>
  <path class="cls-1" d="M39.765,45.347l12.709-.041L66.235,55V45.347a16.674,16.674,0,1,0,0-33.347H39.765A16.674,16.674,0,1,0,39.765,45.347Z"/>
  <path class="cls-2" d="M43.235,33.347l-12.709-.041L16.765,43V33.347A16.674,16.674,0,1,1,16.765,0H43.235A16.674,16.674,0,1,1,43.235,33.347Z"/>
  <path class="cls-3" d="M30,15a2,2,0,1,1-2,2A2,2,0,0,1,30,15ZM16,15a2,2,0,1,1-2,2A2,2,0,0,1,16,15Zm28,0a2,2,0,1,1-2,2A2,2,0,0,1,44,15Z"/>
</svg>
