<?xml version="1.0" encoding="utf-8"?>
<!-- Generator: Adobe Illustrator 20.0.0, SVG Export Plug-In . SVG Version: 6.00 Build 0)  -->
<svg version="1.1" id="artwork" xmlns="http://www.w3.org/2000/svg" xmlns:xlink="http://www.w3.org/1999/xlink" x="0px" y="0px"
	 viewBox="0 0 135 40" style="enable-background:new 0 0 135 40;" xml:space="preserve">
<style type="text/css">
	.st0{fill:#FFFFFF;fill-opacity:0;}
	
	.st2{fill:#FFFFFF;}
	.st3{fill:url(#SVGID_1_);}
	.st4{fill:url(#SVGID_2_);}
	.st5{fill:url(#SVGID_3_);}
	.st6{fill:url(#SVGID_4_);}
	.st7{opacity:0.2;enable-background:new    ;}
	.st8{opacity:0.12;enable-background:new    ;}
	.st9{opacity:0.25;fill:#FFFFFF;enable-background:new    ;}
	.st10{fill:#FFFFFF;stroke:#FFFFFF;stroke-width:0.2;stroke-miterlimit:10;}
</style>
<title>button_google_play_ru</title>
<rect x="-10" y="-10" class="st0" width="155" height="60"/>
<path d="M5,0h125c2.8,0,5,2.2,5,5v30c0,2.8-2.2,5-5,5H5c-2.8,0-5-2.2-5-5V5C0,2.2,2.2,0,5,0z"/>
<path class="st1" d="M130,0.8c2.3,0,4.2,1.9,4.2,4.2v30c0,2.3-1.9,4.2-4.2,4.2H5c-2.3,0-4.2-1.9-4.2-4.2l0,0V5
	c0-2.3,1.9-4.2,4.2-4.2l0,0H130 M130,0H5C2.2,0,0,2.2,0,5v30c0,2.8,2.2,5,5,5h125c2.8,0,5-2.2,5-5V5C135,2.2,132.8,0,130,0z"/>
<path class="st2" d="M68.1,21.8c-2.3,0-4.2,1.9-4.2,4.3c0,2.3,1.9,4.2,4.3,4.2c2.3,0,4.2-1.9,4.2-4.2c0-2.3-1.8-4.2-4.1-4.3
	C68.2,21.7,68.2,21.7,68.1,21.8z M68.1,28.6c-1.4,0.1-2.7-1-2.8-2.4c-0.1-1.4,1-2.7,2.4-2.8c1.4-0.1,2.7,1,2.8,2.4
	c0,0.1,0,0.1,0,0.2C70.6,27.4,69.6,28.5,68.1,28.6C68.2,28.6,68.2,28.6,68.1,28.6z M58.8,21.8c-2.3,0-4.2,1.9-4.2,4.3
	c0,2.3,1.9,4.2,4.3,4.2c2.3,0,4.2-1.9,4.2-4.2c0-2.3-1.8-4.2-4.1-4.3C58.9,21.7,58.9,21.7,58.8,21.8L58.8,21.8z M58.8,28.6
	c-1.4,0.1-2.7-1-2.8-2.4c-0.1-1.4,1-2.7,2.4-2.8c1.4-0.1,2.7,1,2.8,2.4c0,0.1,0,0.1,0,0.2C61.3,27.4,60.2,28.5,58.8,28.6
	C58.9,28.6,58.8,28.6,58.8,28.6L58.8,28.6z M47.7,23.1v1.8h4.3c-0.1,0.8-0.4,1.6-1,2.3c-0.9,0.9-2.1,1.4-3.3,1.3
	c-2.7,0-4.8-2.1-4.8-4.8s2.1-4.8,4.8-4.8c1.2,0,2.4,0.4,3.3,1.3l1.3-1.3c-1.2-1.2-2.8-1.9-4.5-1.9c-3.6-0.1-6.7,2.7-6.9,6.3
	c-0.1,3.6,2.7,6.7,6.3,6.9c0.2,0,0.3,0,0.5,0c1.7,0.1,3.4-0.6,4.6-1.8c1-1.2,1.6-2.7,1.6-4.2c0-0.4,0-0.8-0.1-1.1L47.7,23.1z
	 M93.1,24.5c-0.5-1.6-2-2.6-3.6-2.7c-2.2,0-4,1.8-4,4c0,0.1,0,0.2,0,0.3c0,2.3,1.8,4.2,4.1,4.2c0.1,0,0.1,0,0.2,0
	c1.4,0,2.8-0.7,3.5-1.9l-1.4-1c-0.4,0.7-1.2,1.2-2.1,1.2c-0.9,0-1.7-0.5-2.1-1.3l5.7-2.3L93.1,24.5z M87.2,25.9
	c-0.1-1.3,0.9-2.4,2.2-2.5c0,0,0,0,0,0c0.7,0,1.3,0.3,1.6,0.9L87.2,25.9z M82.6,30h1.9V17.5h-1.9V30z M79.6,22.7L79.6,22.7
	c-0.6-0.6-1.5-1-2.3-1c-2.3,0.1-4.2,2.1-4,4.5c0.1,2.2,1.9,3.9,4,4c0.9,0,1.7-0.4,2.2-1h0.1v0.6c0,1.6-0.9,2.5-2.3,2.5
	c-1,0-1.8-0.6-2.1-1.5l-1.6,0.7c0.6,1.5,2.1,2.5,3.8,2.5c2.2,0,4-1.3,4-4.4V22h-1.7V22.7z M77.4,28.6c-1.4-0.1-2.5-1.4-2.4-2.8
	c0.1-1.3,1.1-2.2,2.4-2.4c1.3,0.1,2.3,1.2,2.3,2.5c0,0,0,0,0,0.1c0.1,1.3-0.9,2.5-2.2,2.6C77.5,28.6,77.5,28.6,77.4,28.6L77.4,28.6z
	 M101.8,17.5h-4.5V30h1.9v-4.7h2.6c2.1,0.2,4-1.5,4.2-3.6c0.2-2.1-1.5-4-3.6-4.2C102.2,17.5,102,17.5,101.8,17.5L101.8,17.5z
	 M101.8,23.5h-2.6v-4.3h2.7c1.2,0,2.1,1,2.1,2.1S103,23.5,101.8,23.5L101.8,23.5z M113.3,21.7c-1.4-0.1-2.7,0.7-3.3,1.9l1.7,0.7
	c0.3-0.6,1-1,1.7-0.9c1-0.1,1.9,0.6,2,1.6c0,0,0,0,0,0v0.1c-0.6-0.3-1.3-0.5-1.9-0.5c-1.8,0-3.6,1-3.6,2.8c0.1,1.6,1.4,2.8,3,2.8
	c0,0,0.1,0,0.1,0c1,0.1,1.9-0.4,2.4-1.2h0.1v1h1.8v-4.8C117.2,23,115.5,21.7,113.3,21.7L113.3,21.7z M113.1,28.5
	c-0.6,0-1.5-0.3-1.5-1.1c0-1,1.1-1.3,2-1.3c0.6,0,1.2,0.1,1.7,0.4C115.2,27.7,114.3,28.6,113.1,28.5L113.1,28.5z M123.7,22l-2.1,5.4
	h-0.1l-2.2-5.4h-2l3.3,7.6l-1.9,4.2h1.9l5.1-11.8H123.7z M106.9,30h1.9V17.5h-1.9V30z"/>
<linearGradient id="SVGID_1_" gradientUnits="userSpaceOnUse" x1="21.8025" y1="598.7125" x2="5.0225" y2="615.4925" gradientTransform="matrix(1 0 0 1 0 -590)">
	<stop  offset="0" style="stop-color:#00A0FF"/>
	<stop  offset="1.000000e-02" style="stop-color:#00A1FF"/>
	<stop  offset="0.26" style="stop-color:#00BEFF"/>
	<stop  offset="0.51" style="stop-color:#00D2FF"/>
	<stop  offset="0.76" style="stop-color:#00DFFF"/>
	<stop  offset="1" style="stop-color:#00E3FF"/>
</linearGradient>
<path class="st3" d="M10.4,7.5C10.1,7.9,9.9,8.4,10,8.9v22.1c0,0.5,0.1,1,0.5,1.4l0.1,0.1l12.4-12.4v-0.3L10.4,7.5L10.4,7.5z"/>
<linearGradient id="SVGID_2_" gradientUnits="userSpaceOnUse" x1="33.83" y1="610" x2="9.64" y2="610" gradientTransform="matrix(1 0 0 1 0 -590)">
	<stop  offset="0" style="stop-color:#FFE000"/>
	<stop  offset="0.41" style="stop-color:#FFBD00"/>
	<stop  offset="0.78" style="stop-color:#FFA500"/>
	<stop  offset="1" style="stop-color:#FF9C00"/>
</linearGradient>
<path class="st4" d="M27,24.3l-4.1-4.1v-0.3l4.1-4.1l0.1,0l4.9,2.8c1.4,0.8,1.4,2.1,0,2.9l-4.9,2.8L27,24.3z"/>
<linearGradient id="SVGID_3_" gradientUnits="userSpaceOnUse" x1="24.8275" y1="612.2975" x2="2.0675" y2="635.0475" gradientTransform="matrix(1 0 0 1 0 -590)">
	<stop  offset="0" style="stop-color:#FF3A44"/>
	<stop  offset="1" style="stop-color:#C31162"/>
</linearGradient>
<path class="st5" d="M27.1,24.2L22.9,20L10.4,32.5c0.6,0.5,1.5,0.5,2.1,0.1L27.1,24.2"/>
<linearGradient id="SVGID_4_" gradientUnits="userSpaceOnUse" x1="7.2975" y1="590.1825" x2="17.4575" y2="600.3425" gradientTransform="matrix(1 0 0 1 0 -590)">
	<stop  offset="0" style="stop-color:#32A071"/>
	<stop  offset="7.000000e-02" style="stop-color:#2DA771"/>
	<stop  offset="0.48" style="stop-color:#15CF74"/>
	<stop  offset="0.8" style="stop-color:#06E775"/>
	<stop  offset="1" style="stop-color:#00F076"/>
</linearGradient>
<path class="st6" d="M27.1,15.8L12.5,7.5C11.9,7,11,7,10.4,7.5L22.9,20L27.1,15.8z"/>
<path class="st7" d="M27,24.1l-14.5,8.2c-0.6,0.4-1.4,0.4-2,0l0,0l-0.1,0.1l0,0l0.1,0.1l0,0c0.6,0.4,1.4,0.4,2,0l14.6-8.3L27,24.1z"
	/>
<path class="st8" d="M10.4,32.3c-0.3-0.4-0.5-0.9-0.5-1.4v0.2c0,0.5,0.1,1,0.5,1.4V32.3L10.4,32.3z"/>
<path class="st8" d="M32,21.3l-5,2.8l0.1,0.1l4.9-2.8c0.6-0.3,0.9-0.8,1-1.4l0,0C32.9,20.6,32.5,21,32,21.3z"/>
<path class="st9" d="M12.5,7.6L32,18.7c0.5,0.3,0.9,0.7,1,1.3l0,0c-0.1-0.6-0.4-1.2-1-1.4L12.5,7.5C11.1,6.7,10,7.4,10,8.9v0.1
	C10,7.5,11.1,6.8,12.5,7.6z"/>
<path class="st10" d="M42.1,14.3h-0.7v-2H42c0.6-0.6,0.9-1.5,0.8-2.3V7h4v5.3h0.7v2h-0.7V13h-4.6V14.3z M43.5,10
	c0,0.8-0.2,1.6-0.6,2.3h3V7.7h-2.4V10z"/>
<path class="st10" d="M53.4,12.2c-1.2,1.2-3.2,1.2-4.4,0C47.8,11,47.8,9,49,7.8c1.2-1.2,3.2-1.2,4.4,0c0,0,0,0,0,0
	C54.6,9,54.6,11,53.4,12.2z M49.6,11.7c0.9,0.9,2.4,0.9,3.3,0c0.9-1,0.9-2.5,0-3.4c-0.9-0.9-2.4-0.9-3.3,0
	C48.7,9.3,48.7,10.7,49.6,11.7z"/>
<path class="st10" d="M58.2,13.1c-1.7,0-3.1-1.3-3.1-3c0,0,0-0.1,0-0.1c0-1.7,1.3-3.1,3-3.1c0,0,0.1,0,0.1,0c0.8,0,1.7,0.3,2.2,1
	l-0.5,0.5c-0.4-0.5-1-0.8-1.7-0.8c-0.6,0-1.2,0.2-1.7,0.7c-0.9,1-0.9,2.5,0,3.5c0.4,0.4,1,0.7,1.7,0.7c0.7,0,1.4-0.3,1.8-0.9
	l0.5,0.5c-0.3,0.3-0.6,0.6-1,0.8C59.1,13,58.6,13.1,58.2,13.1z"/>
<path class="st10" d="M63.7,13h-0.8V7.7h-1.7V7h4.1v0.7h-1.7V13z"/>
<path class="st10" d="M70.7,7l-2.3,5.1c-0.2,0.6-0.7,1-1.4,1.1c-0.2,0-0.4,0-0.6-0.1l0.2-0.7c0.1,0.1,0.3,0.1,0.4,0.1
	c0.1,0,0.3,0,0.4-0.1c0.1-0.1,0.2-0.2,0.3-0.4l0.2-0.5l-2-4.4h0.9l1.5,3.4l0,0L69.7,7H70.7z"/>
<path class="st10" d="M71.5,13V7h4.3v6h-0.8V7.7h-2.8V13H71.5z"/>
<path class="st10" d="M77.2,13V7H78v2.6h3V7h0.8v6H81v-2.7h-3V13H77.2z"/>
<path class="st10" d="M88.1,12.2c-1.2,1.2-3.2,1.2-4.4,0c-1.2-1.2-1.2-3.2,0-4.4c1.2-1.2,3.2-1.2,4.4,0c0,0,0,0,0,0
	C89.2,9,89.2,11,88.1,12.2z M84.2,11.7c0.9,0.9,2.4,0.9,3.3,0c0.9-1,0.9-2.5,0-3.4c-0.9-0.9-2.4-0.9-3.3,0
	C83.3,9.3,83.3,10.7,84.2,11.7z"/>
<path class="st10" d="M92.1,13V7h2.2c0.5,0,0.9,0.2,1.2,0.5C95.8,7.8,96,8.2,96,8.6c0,0.3-0.1,0.5-0.2,0.8c-0.1,0.2-0.4,0.4-0.6,0.5
	l0,0c0.3,0.1,0.5,0.3,0.7,0.5c0.2,0.2,0.3,0.5,0.3,0.9c0,0.5-0.2,0.9-0.5,1.2c-0.3,0.3-0.8,0.5-1.3,0.5L92.1,13z M92.9,9.6h1.4
	c0.3,0,0.5-0.1,0.7-0.3C95.3,8.9,95.4,8.4,95,8c0,0,0,0,0,0c-0.2-0.2-0.4-0.3-0.7-0.3h-1.4L92.9,9.6z M92.9,12.3h1.6
	c0.3,0,0.5-0.1,0.7-0.3c0.2-0.2,0.3-0.4,0.3-0.7c0-0.6-0.4-1-1-1h-1.5L92.9,12.3z"/>
</svg>
